<?xml version="1.0"?>
<svg version="1.1" xmlns="http://www.w3.org/2000/svg" width="500px" height="200px">
  <!-- First tone -->
  <path fill="#ffffff" d="M76.45,125.96l1.98,4.18c-2.695,1.98-5.775,3.41-9.35,3.41c-6.325,0-8.14-4.4-8.14-10.725l0-12.65l-5.115,0l0-5.335l5.115-0.715l0-7.59l8.25-1.485l0,9.075l7.7,0l0,6.05l-7.7,0l0,12.1c0,3.52,0.605,4.95,2.915,4.95c1.485,0,3.63-0.88,4.345-1.265z M96.55305,90.375l0,16.115c1.595-1.32,5.17-3.74,9.24-3.74c5.61,0,8.635,3.74,8.635,9.9l0,14.575l3.85,1.375l0,4.4l-14.96,0l0-4.4l2.86-1.32l0-13.31c0-2.75-1.1-4.4-3.63-4.4c-3.08,0-5.995,2.915-5.995,2.915l0,14.74l2.915,1.375l0,4.4l-15.565,0l0-4.4l4.4-1.375l0-30.91l-4.4-1.1l0-4.4z M144.1561,133l-0.99-3.575s-4.235,4.125-8.91,4.125c-5.335,0-8.58-3.135-8.58-8.635c0-6.49,4.895-9.075,13.255-9.075l3.85,0l0-3.025c0-2.805-1.485-4.015-4.235-4.015c-2.805,0-4.84,0.825-4.84,0.825l-0.825,3.465l-4.95,0l-0.385-8.14s6.655-2.2,11.935-2.2c8.36,0,11.55,2.915,11.55,10.89l0,13.585l4.125,0.99l0,4.4z M142.7811,120.515l-3.135,0c-4.29,0-5.995,1.1-5.995,3.575c0,2.09,1.155,3.3,3.245,3.3c2.915,0,5.885-3.19,5.885-3.19l0-3.685z M178.61415,107.975l0-4.4l14.41-0.275l0,4.675l-3.135,0.715l-8.855,24.31l-9.075,0l-8.69-24.145l-2.64-0.88l0-4.4l14.41-0.275l0,4.675l-3.08,0.55l5.005,16.225l4.84-16.06z M202.4572,94.225c0-3.135,2.255-4.95,4.73-4.95c2.86,0,4.62,1.485,4.62,4.95c0,3.245-2.365,5.005-4.62,5.005c-2.97,0-4.73-1.76-4.73-5.005z M211.6972,127.225l3.85,1.375l0,4.4l-16.5,0l0-4.4l4.4-1.375l0-17.875l-4.4-1.375l0-4.4l12.65-0.275l0,23.925z"/>
  
  <!-- Second tone -->
  <path fill="#ffffff" d="M234.60525,103.3l0.385,3.795s5.225-4.235,10.12-4.235c5.335,0,8.36,3.795,8.36,9.79l0,14.575l3.85,1.375l0,4.4l-15.125,0l0-4.4l3.025-1.375l0-13.09c0-2.53-1.43-4.4-3.74-4.4c-3.41,0-5.885,3.135-5.885,3.135l0,14.355l3.025,1.375l0,4.4l-15.675,0l0-4.4l4.4-1.375l0-17.875l-4.4-1.375l0-4.4z M284.7933,133l-0.495-2.915c-0.77,0.77-3.575,3.465-8.305,3.465c-7.7,0-11.275-5.61-11.275-14.685c0-10.34,4.95-16.115,15.015-16.115c1.32,0,2.915,0.275,4.125,0.55l0-6.985l-4.4-1.1l0-4.4l12.65-0.44l0,36.74l4.4,1.1l0,4.4z M283.8583,123.815l0-13.64c-1.045-0.495-2.695-0.825-4.29-0.825c-4.675,0-6.325,3.575-6.325,9.075c0,5.555,1.54,8.525,5.28,8.525c3.52,0,5.335-3.135,5.335-3.135z M302.25635,107.975l0-4.4l12.65-0.275l0,18.975c0,3.025,0.88,4.4,3.355,4.4c3.575,0,6.215-2.97,6.215-2.97l0-14.355l-4.4-1.375l0-4.4l12.65-0.275l0,23.925l4.4,1.1l0,4.29l-11.605,0.385l-0.55-3.85s-4.4,4.4-9.625,4.4c-5.5,0-8.69-3.685-8.69-9.845l0-14.355z M345.6244,128.71c0-3.135,2.255-4.95,4.73-4.95c3.025,0,4.62,1.815,4.62,4.95c0,3.19-2.255,5.005-4.73,5.005c-3.025,0-4.62-1.815-4.62-5.005z M385.08745,126.4l1.21-6.05l5.225,0l0,12.65l-27.5,0l0-4.675l4.125-1.65l0-25.85l-4.125-1.65l0-4.675l16.775-0.275l0,4.95l-4.125,1.65l0,25.575l8.415,0z M401.2305,94.225c0-3.135,2.255-4.95,4.73-4.95c2.86,0,4.62,1.485,4.62,4.95c0,3.245-2.365,5.005-4.62,5.005c-2.97,0-4.73-1.76-4.73-5.005z M410.4705,127.225l3.85,1.375l0,4.4l-16.5,0l0-4.4l4.4-1.375l0-17.875l-4.4-1.375l0-4.4l12.65-0.275l0,23.925z M438.05355,107.975l0-4.4l14.41-0.275l0,4.675l-3.135,0.715l-8.855,24.31l-9.075,0l-8.69-24.145l-2.64-0.88l0-4.4l14.41-0.275l0,4.675l-3.08,0.55l5.005,16.225l4.84-16.06z M485.3266,119.965l-18.26,0c0.33,4.4,2.86,6.985,6.655,6.985c4.565,0,9.24-2.585,9.24-2.585l2.365,4.565s-5.5,4.62-12.54,4.62c-9.46,0-14.3-5.5-14.3-14.85c0-9.625,5.445-15.95,14.685-15.95c8.195,0,12.485,5.06,12.485,12.925c0,2.09-0.33,4.125-0.33,4.29z M467.1766,114.85l9.955,0c0-3.135-1.32-5.5-4.51-5.5c-3.08,0-5.005,2.255-5.445,5.5z"/>
</svg>
